<svg id="svg" version="1.1" width="400" height="400" xmlns="http://www.w3.org/2000/svg" xmlns:xlink="http://www.w3.org/1999/xlink" style="display: block;"><g id="svgg"><path id="path0" d="M96.912 86.808 C 95.953 87.194,95.387 88.698,95.759 89.872 C 96.321 91.640,97.230 91.790,108.736 92.000 C 119.471 92.196,119.686 92.217,120.399 93.098 C 121.073 93.932,121.137 95.419,121.301 113.898 C 121.492 135.430,121.838 139.702,123.765 144.350 C 124.278 145.588,124.930 147.320,125.212 148.200 C 128.939 159.795,145.913 174.594,160.000 178.531 C 170.070 181.345,176.000 181.023,176.000 177.662 C 176.000 175.727,174.969 175.219,170.187 174.799 C 167.807 174.590,164.767 174.078,163.430 173.662 C 162.094 173.246,159.920 172.590,158.600 172.204 C 156.108 171.475,151.132 169.034,147.020 166.524 C 140.914 162.796,133.229 153.190,130.281 145.600 C 127.396 138.172,127.200 136.115,127.200 113.284 C 127.200 95.321,127.294 93.509,128.287 92.400 C 128.386 92.290,149.223 92.110,174.591 92.000 C 219.237 91.806,220.743 91.776,221.558 91.038 C 222.616 90.080,222.675 87.973,221.669 87.062 C 220.841 86.313,98.759 86.065,96.912 86.808 M244.600 97.678 C 242.685 98.764,242.591 101.299,244.428 102.319 C 245.626 102.983,248.062 104.749,252.816 108.400 C 256.358 111.120,264.400 121.182,264.400 122.894 C 264.400 123.104,264.757 123.778,265.193 124.391 C 266.103 125.668,267.955 130.512,269.600 135.918 C 272.150 144.298,276.595 141.881,274.252 133.387 C 273.950 132.294,273.238 129.715,272.669 127.656 C 272.100 125.596,271.344 123.469,270.989 122.928 C 270.635 122.386,270.085 121.209,269.769 120.311 C 266.546 111.178,248.852 95.267,244.600 97.678 M236.654 112.444 C 235.102 114.659,235.764 115.924,240.183 119.187 C 247.114 124.306,251.574 130.274,253.356 136.816 C 254.700 141.749,256.344 143.279,257.842 140.993 C 258.747 139.611,258.315 136.048,256.777 132.206 C 256.130 130.590,255.600 129.111,255.600 128.921 C 255.600 128.731,254.835 127.402,253.900 125.967 C 247.366 115.938,238.872 109.278,236.654 112.444 M231.222 125.559 C 230.531 126.850,231.510 128.507,235.572 132.925 C 238.830 136.470,239.197 137.040,240.178 140.081 C 241.317 143.612,242.090 144.800,243.248 144.800 C 245.131 144.800,245.234 139.278,243.399 136.714 C 242.882 135.991,242.020 134.500,241.484 133.400 C 238.938 128.178,232.467 123.233,231.222 125.559 M204.467 133.578 C 199.860 134.735,195.706 138.143,193.371 142.681 L 191.800 145.736 191.812 150.568 L 191.824 155.400 193.564 158.715 C 200.873 172.638,220.122 171.657,226.343 157.045 C 229.897 148.698,226.720 140.274,218.031 135.004 L 215.400 133.408 210.600 133.325 C 207.960 133.280,205.200 133.393,204.467 133.578 M302.344 167.565 L 301.400 168.329 301.176 219.065 C 300.956 268.958,300.938 269.856,300.108 273.200 C 296.674 287.033,284.615 301.448,273.000 305.605 C 271.900 305.999,270.190 306.684,269.200 307.128 C 267.642 307.826,263.680 308.530,256.271 309.425 C 251.146 310.044,251.783 314.384,257.000 314.391 C 277.111 314.420,295.702 300.450,303.784 279.236 C 306.629 271.769,306.548 273.471,306.693 218.369 L 306.824 168.938 305.983 167.869 C 304.988 166.605,303.666 166.494,302.344 167.565 M249.725 193.459 C 249.005 194.557,248.322 253.951,248.998 256.710 C 249.580 259.089,251.792 259.844,253.418 258.218 L 254.400 257.236 254.399 226.318 C 254.399 197.684,254.347 195.297,253.699 194.000 C 252.742 192.084,250.799 191.820,249.725 193.459 M158.230 216.606 C 156.881 218.061,156.800 218.911,156.800 231.588 C 156.800 242.757,156.777 243.097,155.958 243.838 C 155.160 244.561,154.057 244.610,134.419 244.800 C 111.470 245.022,112.258 244.922,112.480 247.566 C 112.717 250.402,112.694 250.399,135.118 250.399 L 154.836 250.400 155.818 251.382 C 156.380 251.944,156.806 252.842,156.814 253.482 C 156.821 254.097,156.816 266.480,156.802 281.000 L 156.776 307.400 155.779 308.400 L 154.783 309.400 134.356 309.600 L 113.930 309.800 112.964 310.924 C 111.722 312.368,112.197 313.407,114.369 313.992 C 117.657 314.877,204.767 314.334,205.432 313.424 C 206.234 312.328,206.143 311.707,205.018 310.582 L 204.036 309.600 184.624 309.600 L 165.213 309.600 163.906 308.433 L 162.600 307.266 162.479 281.533 C 162.352 254.413,162.405 252.977,163.586 251.517 L 164.329 250.600 184.323 250.400 C 206.671 250.176,206.000 250.269,206.000 247.400 C 206.000 244.752,206.715 244.841,184.495 244.714 L 164.422 244.600 163.511 243.689 C 162.607 242.786,162.599 242.681,162.484 230.231 L 162.368 217.682 161.403 216.641 C 160.194 215.336,159.415 215.327,158.230 216.606 " stroke="none" fill="#000000" fill-rule="evenodd"></path><path id="path1" d="M153.288 0.393 C 152.566 0.564,151.570 1.176,151.075 1.752 C 150.255 2.707,149.908 2.801,147.187 2.810 C 143.297 2.822,141.359 3.298,140.033 4.568 C 139.211 5.356,138.536 5.602,137.178 5.610 C 134.413 5.624,132.439 6.230,131.466 7.363 C 130.834 8.098,130.171 8.405,129.187 8.417 C 126.536 8.451,124.395 9.081,123.491 10.096 C 122.855 10.810,122.027 11.167,120.600 11.343 C 119.041 11.535,118.373 11.855,117.571 12.795 C 116.760 13.744,116.218 14.000,115.018 14.000 C 113.795 14.000,113.234 14.276,112.174 15.400 C 111.127 16.510,110.547 16.800,109.374 16.800 C 108.215 16.800,107.622 17.089,106.635 18.136 C 105.700 19.127,104.914 19.533,103.588 19.711 C 102.331 19.879,101.525 20.271,100.871 21.033 C 100.242 21.763,99.332 22.224,98.070 22.452 C 96.795 22.682,95.882 23.149,95.200 23.920 C 94.650 24.541,93.445 25.268,92.521 25.534 C 91.598 25.801,90.512 26.420,90.108 26.910 C 89.703 27.399,88.839 28.074,88.186 28.410 C 87.534 28.745,86.831 29.401,86.623 29.867 C 86.367 30.444,85.769 30.779,84.755 30.915 C 83.226 31.120,81.242 32.285,81.204 33.000 C 81.192 33.220,80.602 33.670,79.891 34.000 C 79.181 34.330,78.422 35.005,78.205 35.500 C 77.988 35.995,77.611 36.400,77.366 36.400 C 76.757 36.400,75.401 37.648,75.085 38.500 C 74.942 38.885,74.442 39.200,73.973 39.200 C 72.725 39.200,70.463 40.373,70.217 41.146 C 70.100 41.514,69.374 42.155,68.602 42.571 C 67.831 42.986,67.200 43.572,67.200 43.873 C 67.200 44.174,66.743 44.594,66.183 44.806 C 65.624 45.019,64.862 45.725,64.489 46.375 C 64.116 47.024,63.495 47.639,63.109 47.740 C 62.723 47.841,62.093 48.471,61.709 49.140 C 61.325 49.809,60.695 50.439,60.309 50.540 C 59.923 50.641,59.293 51.271,58.909 51.940 C 58.525 52.609,57.895 53.239,57.509 53.340 C 57.123 53.441,56.493 54.071,56.109 54.740 C 55.725 55.409,55.095 56.039,54.709 56.140 C 54.323 56.241,53.693 56.871,53.309 57.540 C 52.925 58.209,52.295 58.839,51.909 58.940 C 51.523 59.041,50.893 59.671,50.509 60.340 C 50.125 61.009,49.495 61.639,49.109 61.740 C 48.723 61.841,48.104 62.452,47.733 63.097 C 47.363 63.743,46.689 64.435,46.237 64.635 C 45.784 64.836,45.225 65.384,44.994 65.853 C 44.762 66.322,43.994 67.193,43.287 67.789 C 42.579 68.384,42.000 69.047,42.000 69.262 C 42.000 69.478,41.370 70.248,40.600 70.974 C 39.575 71.941,39.200 72.632,39.200 73.556 C 39.200 74.511,38.959 74.927,38.206 75.270 C 37.660 75.519,36.994 76.218,36.726 76.823 C 36.458 77.428,35.736 78.220,35.122 78.583 C 34.507 78.946,33.904 79.643,33.781 80.132 C 33.658 80.621,33.032 81.375,32.389 81.807 C 31.515 82.395,31.156 83.019,30.967 84.282 C 30.773 85.572,30.393 86.215,29.357 87.006 C 28.611 87.575,28.000 88.371,28.000 88.774 C 28.000 89.178,27.557 89.798,27.017 90.152 C 26.443 90.528,25.829 91.505,25.544 92.498 C 25.270 93.451,24.471 94.752,23.727 95.454 C 22.721 96.404,22.400 97.043,22.400 98.093 C 22.400 99.134,22.053 99.835,21.000 100.919 C 19.816 102.138,19.600 102.642,19.600 104.180 C 19.600 105.425,19.432 106.000,19.070 106.000 C 17.897 106.000,16.800 107.801,16.800 109.726 C 16.800 111.016,16.635 111.600,16.270 111.600 C 15.097 111.600,14.000 113.401,14.000 115.326 C 14.000 116.629,13.836 117.200,13.462 117.200 C 12.462 117.200,11.577 118.679,11.330 120.761 C 11.147 122.304,10.834 123.030,10.103 123.605 C 9.010 124.464,8.424 126.436,8.410 129.300 C 8.404 130.345,8.212 131.200,7.983 131.200 C 6.670 131.200,5.966 132.732,5.728 136.107 C 5.514 139.140,5.382 139.581,4.564 140.019 C 3.295 140.698,3.156 141.201,2.905 146.000 C 2.700 149.931,2.615 150.269,1.575 151.273 C -0.067 152.859,-0.053 152.369,0.079 202.133 L 0.200 247.666 1.500 248.827 C 2.753 249.947,2.800 250.101,2.810 253.094 C 2.822 257.106,3.289 259.032,4.513 260.121 C 5.356 260.872,5.532 261.460,5.724 264.166 C 5.930 267.076,6.047 267.416,7.174 268.378 C 8.155 269.215,8.402 269.741,8.410 271.012 C 8.425 273.565,9.086 275.738,10.119 276.629 C 10.803 277.219,11.144 278.026,11.302 279.424 C 11.478 280.986,11.778 281.603,12.762 282.424 C 13.779 283.274,14.000 283.753,14.000 285.111 C 14.000 286.717,15.366 288.800,16.418 288.800 C 16.628 288.800,16.800 289.619,16.800 290.619 C 16.800 292.362,18.125 294.400,19.258 294.400 C 19.446 294.400,19.600 295.204,19.600 296.187 C 19.600 297.695,19.818 298.191,21.000 299.373 C 22.010 300.384,22.400 301.126,22.400 302.039 C 22.400 302.963,22.771 303.655,23.772 304.599 C 24.642 305.420,25.247 306.443,25.426 307.396 C 25.581 308.223,26.145 309.279,26.680 309.744 C 27.215 310.210,27.919 311.152,28.246 311.840 C 28.572 312.527,29.257 313.280,29.769 313.513 C 30.464 313.830,30.768 314.390,30.967 315.722 C 31.166 317.047,31.540 317.741,32.418 318.413 C 33.068 318.912,33.600 319.547,33.600 319.824 C 33.600 320.102,34.179 320.816,34.887 321.411 C 35.594 322.007,36.364 322.878,36.598 323.347 C 36.832 323.816,37.513 324.435,38.112 324.722 C 38.845 325.074,39.200 325.554,39.200 326.196 C 39.200 327.733,39.838 328.978,40.925 329.560 C 41.483 329.858,42.049 330.542,42.184 331.078 C 42.319 331.615,42.961 332.357,43.612 332.727 C 44.263 333.097,44.797 333.670,44.800 334.000 C 44.803 334.330,45.434 335.028,46.203 335.552 C 46.971 336.075,47.600 336.684,47.600 336.905 C 47.600 337.336,49.143 338.800,49.597 338.800 C 49.748 338.800,50.078 339.253,50.330 339.806 C 50.582 340.359,51.221 341.009,51.750 341.250 C 52.279 341.491,52.909 342.121,53.150 342.650 C 53.391 343.179,54.021 343.809,54.550 344.050 C 55.079 344.291,55.704 344.910,55.939 345.425 C 56.173 345.940,56.913 346.645,57.583 346.991 C 58.252 347.337,58.800 347.892,58.800 348.224 C 58.800 348.556,59.430 349.199,60.200 349.653 C 60.970 350.107,61.600 350.692,61.600 350.953 C 61.600 351.214,62.129 351.740,62.776 352.122 C 63.422 352.504,64.056 353.146,64.184 353.550 C 64.312 353.953,65.043 354.620,65.808 355.032 C 66.574 355.445,67.200 355.945,67.200 356.144 C 67.200 356.666,68.826 358.000,69.461 358.000 C 69.758 358.000,70.000 358.172,70.000 358.382 C 70.000 359.219,72.009 360.699,73.461 360.931 C 74.533 361.103,75.122 361.452,75.400 362.082 C 75.620 362.579,76.184 363.175,76.653 363.406 C 77.122 363.638,77.993 364.406,78.589 365.113 C 79.184 365.821,79.850 366.400,80.069 366.400 C 80.288 366.400,81.051 367.002,81.766 367.738 C 82.637 368.634,83.593 369.161,84.662 369.331 C 85.811 369.515,86.410 369.871,86.802 370.604 C 87.102 371.164,87.730 371.718,88.198 371.835 C 88.666 371.953,89.544 372.574,90.150 373.216 C 90.756 373.858,91.983 374.580,92.876 374.820 C 93.782 375.064,94.924 375.761,95.457 376.395 C 96.104 377.164,96.962 377.625,98.107 377.817 C 99.157 377.994,100.247 378.539,100.976 379.251 C 101.645 379.905,102.594 380.402,103.176 380.405 C 104.673 380.413,106.000 380.834,106.000 381.300 C 106.000 382.146,107.678 383.107,109.602 383.363 C 110.701 383.508,111.600 383.814,111.600 384.042 C 111.600 384.902,112.939 385.741,114.772 386.031 C 116.105 386.242,117.037 386.699,117.904 387.566 C 118.764 388.426,119.523 388.800,120.408 388.800 C 121.642 388.800,124.000 389.887,124.000 390.455 C 124.000 390.859,126.243 391.488,128.735 391.784 C 130.329 391.973,131.091 392.293,131.741 393.050 C 132.473 393.900,133.157 394.129,136.006 394.479 C 138.448 394.779,139.568 395.101,140.000 395.627 C 140.895 396.719,142.268 397.100,146.433 397.411 C 149.743 397.658,150.337 397.820,151.326 398.746 L 152.452 399.800 199.671 399.905 L 246.890 400.010 248.245 399.172 C 248.990 398.712,249.600 398.196,249.600 398.026 C 249.600 397.857,251.327 397.597,253.439 397.448 C 257.388 397.171,259.408 396.596,260.325 395.491 C 260.652 395.097,261.858 394.752,263.525 394.576 C 266.693 394.242,267.671 393.917,268.662 392.866 C 269.157 392.341,270.383 391.932,272.388 391.624 C 275.034 391.218,276.421 390.598,277.256 389.447 C 277.397 389.253,278.477 388.944,279.656 388.760 C 281.221 388.516,282.050 388.138,282.726 387.361 C 283.387 386.600,284.160 386.239,285.435 386.095 C 286.782 385.943,287.465 385.601,288.226 384.696 C 288.989 383.789,289.670 383.449,291.026 383.296 C 292.365 383.145,293.064 382.801,293.790 381.938 C 294.474 381.126,295.330 380.677,296.672 380.426 C 297.931 380.191,298.885 379.717,299.472 379.035 C 299.961 378.466,300.736 378.000,301.194 378.000 C 302.620 378.000,304.862 376.848,305.083 376.002 C 305.236 375.421,305.754 375.121,306.934 374.932 C 308.017 374.759,309.040 374.217,309.948 373.335 C 310.704 372.601,311.560 372.000,311.849 372.000 C 312.139 372.000,312.764 371.476,313.237 370.835 C 313.796 370.080,314.701 369.519,315.810 369.239 C 316.867 368.973,317.910 368.348,318.535 367.604 C 319.092 366.942,319.802 366.400,320.112 366.400 C 320.778 366.400,322.000 365.143,322.000 364.459 C 322.000 364.195,322.441 363.813,322.979 363.608 C 323.518 363.403,324.246 362.797,324.597 362.261 C 324.996 361.652,325.900 361.119,327.008 360.840 C 328.194 360.541,329.074 359.997,329.666 359.197 C 330.152 358.538,330.771 358.000,331.040 358.000 C 331.309 358.000,332.016 357.421,332.611 356.713 C 333.207 356.006,334.078 355.238,334.547 355.006 C 335.016 354.775,335.564 354.216,335.765 353.763 C 335.965 353.311,336.657 352.637,337.303 352.267 C 337.948 351.896,338.570 351.235,338.685 350.797 C 338.800 350.358,339.111 350.000,339.377 350.000 C 339.984 350.000,341.600 348.310,341.600 347.674 C 341.600 347.413,341.839 347.200,342.130 347.200 C 342.774 347.200,344.400 345.534,344.400 344.874 C 344.400 344.613,344.639 344.400,344.930 344.400 C 345.522 344.400,347.199 342.757,347.203 342.174 C 347.204 341.968,347.761 341.483,348.441 341.097 C 349.121 340.710,349.759 340.077,349.860 339.691 C 349.961 339.305,350.591 338.675,351.260 338.291 C 351.929 337.907,352.569 337.241,352.682 336.810 C 352.794 336.379,353.187 335.931,353.554 335.815 C 353.921 335.698,354.487 335.205,354.811 334.719 C 355.135 334.233,355.985 333.299,356.700 332.644 C 357.415 331.989,358.000 331.228,358.000 330.954 C 358.000 330.679,358.541 330.070,359.201 329.599 C 360.015 329.019,360.545 328.178,360.844 326.990 C 361.119 325.899,361.655 324.994,362.261 324.597 C 362.798 324.245,363.420 323.555,363.644 323.062 C 363.869 322.570,364.445 321.995,364.924 321.784 C 365.404 321.573,366.048 320.872,366.356 320.226 C 366.663 319.580,367.408 318.637,368.011 318.129 C 368.763 317.497,369.189 316.667,369.365 315.493 C 369.551 314.254,369.867 313.672,370.509 313.390 C 370.997 313.176,371.646 312.476,371.951 311.834 C 372.257 311.193,373.002 310.184,373.608 309.592 C 374.284 308.931,374.819 307.874,374.990 306.857 C 375.145 305.942,375.495 305.200,375.773 305.200 C 376.689 305.200,377.592 303.767,377.847 301.910 C 378.034 300.548,378.379 299.870,379.194 299.268 C 380.037 298.644,380.338 298.023,380.502 296.573 C 380.668 295.096,380.972 294.485,381.904 293.756 C 382.828 293.033,383.151 292.392,383.351 290.885 C 383.550 289.381,383.865 288.754,384.749 288.101 C 385.643 287.440,385.947 286.823,386.156 285.249 C 386.355 283.748,386.687 283.032,387.472 282.415 C 388.243 281.809,388.608 281.040,388.849 279.517 C 389.068 278.132,389.497 277.147,390.143 276.548 C 391.001 275.752,392.000 272.241,392.000 270.020 C 392.000 269.737,392.517 268.917,393.149 268.197 C 394.120 267.091,394.343 266.404,394.591 263.754 C 394.838 261.120,395.043 260.484,395.874 259.770 C 396.908 258.882,397.557 255.759,397.587 251.533 C 397.598 249.966,397.776 249.538,398.700 248.865 L 399.800 248.064 399.905 200.452 L 400.010 152.839 398.861 151.519 C 397.822 150.325,397.686 149.822,397.426 146.217 C 397.130 142.107,396.782 140.961,395.564 140.096 C 395.032 139.719,394.783 138.770,394.568 136.306 C 394.320 133.467,394.133 132.871,393.192 131.931 C 392.319 131.058,392.012 130.224,391.640 127.723 C 391.268 125.227,390.976 124.433,390.174 123.744 C 389.447 123.119,389.068 122.245,388.794 120.562 C 388.586 119.285,388.187 118.102,387.908 117.932 C 387.629 117.762,387.176 117.473,386.903 117.290 C 386.630 117.106,386.286 116.066,386.139 114.978 C 385.896 113.174,384.882 111.600,383.963 111.600 C 383.790 111.600,383.522 110.745,383.366 109.700 C 383.051 107.590,382.193 106.000,381.368 106.000 C 381.021 106.000,380.732 105.280,380.561 103.991 C 380.362 102.492,380.018 101.750,379.204 101.065 C 378.430 100.414,378.032 99.606,377.834 98.290 C 377.632 96.943,377.240 96.169,376.405 95.466 C 375.698 94.871,375.147 93.924,374.976 93.010 C 374.807 92.114,374.161 90.988,373.348 90.175 C 372.607 89.433,371.999 88.596,371.999 88.313 C 371.998 88.031,371.467 87.445,370.819 87.010 C 369.977 86.446,369.564 85.773,369.376 84.657 C 369.198 83.604,368.670 82.689,367.756 81.850 C 367.010 81.166,366.400 80.392,366.400 80.132 C 366.400 79.871,365.917 79.278,365.326 78.813 C 364.735 78.349,363.938 77.452,363.554 76.820 C 363.170 76.188,362.483 75.553,362.028 75.409 C 361.572 75.264,361.199 74.933,361.198 74.673 C 361.190 73.084,360.256 71.160,359.185 70.528 C 358.533 70.143,358.000 69.534,358.000 69.176 C 358.000 68.464,356.792 67.200,356.112 67.200 C 355.878 67.200,355.585 66.793,355.460 66.296 C 355.335 65.799,354.722 65.090,354.098 64.721 C 353.473 64.352,352.726 63.609,352.437 63.069 C 352.148 62.530,351.482 61.892,350.956 61.653 C 350.430 61.413,350.000 61.035,350.000 60.813 C 350.000 60.218,348.697 58.800,348.151 58.800 C 347.891 58.800,347.307 58.170,346.853 57.400 C 346.399 56.630,345.769 56.000,345.453 56.000 C 345.137 56.000,344.507 55.370,344.053 54.600 C 343.599 53.830,342.969 53.200,342.653 53.200 C 342.337 53.200,341.707 52.570,341.253 51.800 C 340.799 51.030,340.156 50.400,339.824 50.400 C 339.492 50.400,338.941 49.860,338.600 49.200 C 338.259 48.540,337.791 48.000,337.560 48.000 C 337.330 48.000,336.495 47.280,335.705 46.400 C 334.915 45.520,334.057 44.800,333.799 44.800 C 333.540 44.800,333.127 44.359,332.882 43.819 C 332.636 43.280,331.887 42.555,331.217 42.209 C 330.548 41.863,330.000 41.419,330.000 41.222 C 330.000 40.648,327.392 39.200,326.353 39.197 C 325.713 39.196,325.175 38.799,324.715 37.991 C 324.338 37.328,323.708 36.663,323.315 36.513 C 322.922 36.363,322.029 35.691,321.332 35.020 C 318.290 32.093,317.069 31.212,315.696 30.954 C 314.873 30.800,313.679 30.137,312.969 29.440 C 310.794 27.307,308.437 25.672,307.122 25.383 C 306.426 25.230,305.283 24.496,304.581 23.752 C 303.590 22.701,302.984 22.400,301.862 22.400 C 300.789 22.400,300.261 22.159,299.804 21.462 C 299.038 20.294,297.564 19.600,295.845 19.600 C 294.826 19.600,294.425 19.372,294.069 18.592 C 293.549 17.449,292.160 16.800,290.238 16.800 C 289.226 16.800,288.824 16.571,288.469 15.792 C 287.958 14.671,286.565 14.000,284.748 14.000 C 283.911 14.000,283.249 13.644,282.557 12.822 C 281.819 11.945,281.085 11.576,279.683 11.379 C 278.647 11.234,277.620 10.895,277.400 10.627 C 276.437 9.453,274.720 8.762,272.175 8.525 C 270.009 8.323,269.258 8.072,268.559 7.318 C 267.489 6.163,265.671 5.600,263.015 5.600 C 261.370 5.600,260.871 5.421,260.134 4.563 C 259.048 3.298,257.156 2.822,253.170 2.810 C 250.461 2.801,250.040 2.694,249.199 1.799 C 248.682 1.249,247.616 0.620,246.830 0.402 C 245.120 -0.073,155.290 -0.082,153.288 0.393 M221.669 87.062 C 222.675 87.973,222.616 90.080,221.558 91.038 C 220.743 91.776,219.237 91.806,174.591 92.000 C 149.223 92.110,128.386 92.290,128.287 92.400 C 127.294 93.509,127.200 95.321,127.200 113.284 C 127.200 136.115,127.396 138.172,130.281 145.600 C 133.229 153.190,140.914 162.796,147.020 166.524 C 151.132 169.034,156.108 171.475,158.600 172.204 C 159.920 172.590,162.094 173.246,163.430 173.662 C 164.767 174.078,167.807 174.590,170.187 174.799 C 174.969 175.219,176.000 175.727,176.000 177.662 C 176.000 181.023,170.070 181.345,160.000 178.531 C 145.913 174.594,128.939 159.795,125.212 148.200 C 124.930 147.320,124.278 145.588,123.765 144.350 C 121.838 139.702,121.492 135.430,121.301 113.898 C 121.137 95.419,121.073 93.932,120.399 93.098 C 119.686 92.217,119.471 92.196,108.736 92.000 C 97.230 91.790,96.321 91.640,95.759 89.872 C 95.387 88.698,95.953 87.194,96.912 86.808 C 98.759 86.065,220.841 86.313,221.669 87.062 M248.200 98.010 C 256.249 101.994,267.359 113.482,269.769 120.311 C 270.085 121.209,270.635 122.386,270.989 122.928 C 271.344 123.469,272.100 125.596,272.669 127.656 C 273.238 129.715,273.950 132.294,274.252 133.387 C 275.522 137.991,274.651 141.505,272.387 140.913 C 271.202 140.603,270.814 139.907,269.600 135.918 C 267.955 130.512,266.103 125.668,265.193 124.391 C 264.757 123.778,264.400 123.104,264.400 122.894 C 264.400 121.182,256.358 111.120,252.816 108.400 C 248.062 104.749,245.626 102.983,244.428 102.319 C 240.677 100.237,244.311 96.085,248.200 98.010 M242.600 113.503 C 244.936 115.063,248.572 118.655,251.000 121.802 C 252.663 123.958,255.600 128.503,255.600 128.921 C 255.600 129.111,256.130 130.590,256.777 132.206 C 258.315 136.048,258.747 139.611,257.842 140.993 C 256.344 143.279,254.700 141.749,253.356 136.816 C 251.574 130.274,247.114 124.306,240.183 119.187 C 235.764 115.924,235.102 114.659,236.654 112.444 C 237.579 111.124,239.569 111.479,242.600 113.503 M237.554 128.278 C 239.179 129.995,240.947 132.300,241.484 133.400 C 242.020 134.500,242.882 135.991,243.399 136.714 C 245.234 139.278,245.131 144.800,243.248 144.800 C 242.090 144.800,241.317 143.612,240.178 140.081 C 239.197 137.040,238.830 136.470,235.572 132.925 C 231.510 128.507,230.531 126.850,231.222 125.559 C 232.134 123.855,234.216 124.749,237.554 128.278 M218.031 135.004 C 226.720 140.274,229.897 148.698,226.343 157.045 C 220.122 171.657,200.873 172.638,193.564 158.715 L 191.824 155.400 191.812 150.568 L 191.800 145.736 193.371 142.681 C 196.878 135.864,201.832 133.174,210.600 133.325 L 215.400 133.408 218.031 135.004 M305.983 167.869 L 306.824 168.938 306.693 218.369 C 306.548 273.471,306.629 271.769,303.784 279.236 C 295.702 300.450,277.111 314.420,257.000 314.391 C 251.783 314.384,251.146 310.044,256.271 309.425 C 263.680 308.530,267.642 307.826,269.200 307.128 C 270.190 306.684,271.900 305.999,273.000 305.605 C 284.615 301.448,296.674 287.033,300.108 273.200 C 300.938 269.856,300.956 268.958,301.176 219.065 L 301.400 168.329 302.344 167.565 C 303.666 166.494,304.988 166.605,305.983 167.869 M253.699 194.000 C 254.347 195.297,254.399 197.684,254.399 226.318 L 254.400 257.236 253.418 258.218 C 251.792 259.844,249.580 259.089,248.998 256.710 C 248.322 253.951,249.005 194.557,249.725 193.459 C 250.799 191.820,252.742 192.084,253.699 194.000 M161.403 216.641 L 162.368 217.682 162.484 230.231 C 162.599 242.681,162.607 242.786,163.511 243.689 L 164.422 244.600 184.495 244.714 C 206.715 244.841,206.000 244.752,206.000 247.400 C 206.000 250.269,206.671 250.176,184.323 250.400 L 164.329 250.600 163.586 251.517 C 162.405 252.977,162.352 254.413,162.479 281.533 L 162.600 307.266 163.906 308.433 L 165.213 309.600 184.624 309.600 L 204.036 309.600 205.018 310.582 C 206.143 311.707,206.234 312.328,205.432 313.424 C 204.767 314.334,117.657 314.877,114.369 313.992 C 112.197 313.407,111.722 312.368,112.964 310.924 L 113.930 309.800 134.356 309.600 L 154.783 309.400 155.779 308.400 L 156.776 307.400 156.802 281.000 C 156.816 266.480,156.821 254.097,156.814 253.482 C 156.806 252.842,156.380 251.944,155.818 251.382 L 154.836 250.400 135.118 250.399 C 112.694 250.399,112.717 250.402,112.480 247.566 C 112.258 244.922,111.470 245.022,134.419 244.800 C 154.057 244.610,155.160 244.561,155.958 243.838 C 156.777 243.097,156.800 242.757,156.800 231.588 C 156.800 218.911,156.881 218.061,158.230 216.606 C 159.415 215.327,160.194 215.336,161.403 216.641 " stroke="none" fill="#ffffff" fill-rule="evenodd"></path></g></svg>